<?xml version="1.0" encoding="utf-8"?>
<!-- Generator: Adobe Illustrator 23.0.1, SVG Export Plug-In . SVG Version: 6.00 Build 0)  -->
<svg version="1.1" id="Layer_1" xmlns="http://www.w3.org/2000/svg" xmlns:xlink="http://www.w3.org/1999/xlink" x="0px" y="0px"
	 viewBox="0 0 16.29 44.96" style="enable-background:new 0 0 16.29 44.96;" xml:space="preserve">
<style type="text/css">
	.st0{fill:none;stroke:#E2E2E2;stroke-width:2;stroke-miterlimit:10;}
	.st1{fill:#B9B9B9;}
	.st2{fill:none;stroke:#E2E2E2;stroke-width:2;}
</style>
<path class="st0" d="M8.03,2C8.42,2,8.81,2.04,9.2,2.12c0.39,0.08,0.76,0.19,1.13,0.34c0.36,0.15,0.71,0.34,1.04,0.55
	c0.33,0.22,0.63,0.47,0.91,0.75s0.53,0.58,0.75,0.91s0.4,0.67,0.55,1.04c0.15,0.36,0.26,0.74,0.34,1.13
	c0.08,0.39,0.12,0.78,0.12,1.17c0,0.39-0.04,0.78-0.12,1.17c-0.08,0.39-0.19,0.76-0.34,1.13s-0.34,0.71-0.55,1.04
	c-0.22,0.33-0.47,0.63-0.75,0.91c-0.28,0.28-0.58,0.53-0.91,0.75c-0.33,0.22-0.67,0.4-1.04,0.55c-0.36,0.15-0.74,0.26-1.13,0.34
	C8.81,13.96,8.42,14,8.03,14c-0.39,0-0.78-0.04-1.17-0.12c-0.39-0.08-0.76-0.19-1.13-0.34c-0.36-0.15-0.71-0.34-1.04-0.55
	c-0.33-0.22-0.63-0.47-0.91-0.75c-0.28-0.28-0.53-0.58-0.75-0.91c-0.22-0.33-0.4-0.67-0.55-1.04S2.22,9.56,2.14,9.17
	C2.07,8.79,2.03,8.4,2.03,8c0-0.39,0.04-0.78,0.12-1.17c0.08-0.39,0.19-0.76,0.34-1.13C2.64,5.34,2.82,5,3.04,4.67
	s0.47-0.63,0.75-0.91S4.37,3.23,4.7,3.01c0.33-0.22,0.67-0.4,1.04-0.55C6.1,2.31,6.47,2.2,6.86,2.12C7.24,2.04,7.63,2,8.03,2z"/>
<path class="st1" d="M8.03,5c0.4,0,0.78,0.08,1.15,0.23c0.37,0.15,0.69,0.37,0.97,0.65c0.28,0.28,0.5,0.61,0.65,0.97
	S11.03,7.61,11.03,8c0,0.4-0.08,0.78-0.23,1.15c-0.15,0.37-0.37,0.69-0.65,0.97c-0.28,0.28-0.61,0.5-0.97,0.65S8.43,11,8.03,11
	c-0.4,0-0.78-0.08-1.15-0.23s-0.69-0.37-0.97-0.65c-0.28-0.28-0.5-0.61-0.65-0.97C5.1,8.78,5.03,8.4,5.03,8S5.1,7.22,5.26,6.86
	s0.37-0.69,0.65-0.97c0.28-0.28,0.61-0.5,0.97-0.65C7.25,5.08,7.63,5,8.03,5z"/>
<line class="st2" x1="8.03" y1="17.5" x2="8.03" y2="27.5"/>
<path class="st0" d="M8.03,31c0.39,0,0.78,0.04,1.17,0.12c0.39,0.08,0.76,0.19,1.13,0.34c0.36,0.15,0.71,0.34,1.04,0.55
	c0.33,0.22,0.63,0.47,0.91,0.75s0.53,0.58,0.75,0.91s0.4,0.67,0.55,1.04c0.15,0.36,0.26,0.74,0.34,1.13
	c0.08,0.39,0.12,0.78,0.12,1.17c0,0.39-0.04,0.78-0.12,1.17c-0.08,0.39-0.19,0.76-0.34,1.13s-0.34,0.71-0.55,1.04
	c-0.22,0.33-0.47,0.63-0.75,0.91c-0.28,0.28-0.58,0.53-0.91,0.75c-0.33,0.22-0.67,0.4-1.04,0.55c-0.36,0.15-0.74,0.26-1.13,0.34
	C8.81,42.96,8.42,43,8.03,43c-0.39,0-0.78-0.04-1.17-0.12c-0.39-0.08-0.76-0.19-1.13-0.34c-0.36-0.15-0.71-0.34-1.04-0.55
	c-0.33-0.22-0.63-0.47-0.91-0.75c-0.28-0.28-0.53-0.58-0.75-0.91c-0.22-0.33-0.4-0.67-0.55-1.04s-0.26-0.74-0.34-1.13
	C2.07,37.79,2.03,37.4,2.03,37c0-0.39,0.04-0.78,0.12-1.17c0.08-0.39,0.19-0.76,0.34-1.13c0.15-0.36,0.34-0.71,0.55-1.04
	s0.47-0.63,0.75-0.91s0.58-0.53,0.91-0.75c0.33-0.22,0.67-0.4,1.04-0.55c0.36-0.15,0.74-0.26,1.13-0.34C7.24,31.04,7.63,31,8.03,31z
	"/>
<path class="st1" d="M8.03,34c0.4,0,0.78,0.08,1.15,0.23c0.37,0.15,0.69,0.37,0.97,0.65c0.28,0.28,0.5,0.61,0.65,0.97
	s0.23,0.75,0.23,1.15c0,0.4-0.08,0.78-0.23,1.15c-0.15,0.37-0.37,0.69-0.65,0.97c-0.28,0.28-0.61,0.5-0.97,0.65S8.43,40,8.03,40
	c-0.4,0-0.78-0.08-1.15-0.23s-0.69-0.37-0.97-0.65c-0.28-0.28-0.5-0.61-0.65-0.97C5.1,37.78,5.03,37.4,5.03,37s0.08-0.78,0.23-1.15
	s0.37-0.69,0.65-0.97c0.28-0.28,0.61-0.5,0.97-0.65C7.25,34.08,7.63,34,8.03,34z"/>
</svg>
